<svg xmlns="http://www.w3.org/2000/svg" viewBox="3731 15129 1000 866.667"><defs><style>.a{fill:#fff;}</style></defs><path class="a" d="M436,350q61.979,0,105.99,44.01T586,500q0,61.979-44.01,105.99T436,650q-61.979,0-105.99-44.01T286,500q0-61.979,44.01-105.99T436,350ZM802.667,133.333q55.208,0,94.271,39.063T936,266.667V733.333q0,55.208-39.062,94.271t-94.271,39.063H69.333q-55.208,0-94.271-39.062T-64,733.333V266.667q0-55.208,39.063-94.271t94.271-39.062H186L212.562,62.5q9.9-25.521,36.2-44.01T302.667,0H569.333q27.6,0,53.906,18.49t36.2,44.01L686,133.333ZM436,733.333q96.354,0,164.844-68.49T669.333,500q0-96.354-68.49-164.844T436,266.667q-96.354,0-164.844,68.49T202.667,500q0,96.354,68.49,164.844T436,733.333Z" transform="translate(3795 15129)"/></svg>