<svg xmlns="http://www.w3.org/2000/svg" viewBox="5393 15187 1000 750.299"><defs><style>.a{fill:#fff;}</style></defs><path class="a" d="M293.568,888.517l-27.322,27.322a17.186,17.186,0,0,1-25.137,0L-13.536,661.194A17.276,17.276,0,0,1-19,648.626a17.277,17.277,0,0,1,5.464-12.568L241.109,381.413a17.186,17.186,0,0,1,25.137,0l27.322,27.322a17.186,17.186,0,0,1,0,25.137L78.814,648.626,293.568,863.38a17.186,17.186,0,0,1,0,25.137Zm322.951-583.06L412.694,1010.921a17.774,17.774,0,0,1-8.47,10.656,15.256,15.256,0,0,1-12.842,1.366l-33.88-9.29a17.774,17.774,0,0,1-10.656-8.47,16.359,16.359,0,0,1-1.366-13.388L549.306,286.331a17.774,17.774,0,0,1,8.47-10.656,15.256,15.256,0,0,1,12.841-1.366l33.88,9.29a17.774,17.774,0,0,1,10.656,8.47A16.359,16.359,0,0,1,616.519,305.456ZM975.536,661.194,720.891,915.839a17.186,17.186,0,0,1-25.137,0l-27.322-27.322a17.186,17.186,0,0,1,0-25.137L883.186,648.626,668.432,433.872a17.186,17.186,0,0,1,0-25.137l27.322-27.322a17.186,17.186,0,0,1,25.137,0L975.536,636.057a17.186,17.186,0,0,1,0,25.137Z" transform="translate(5412 14913.523)"/></svg>