<?xml version="1.0" encoding="UTF-8"?>
<svg width="456px" height="435px" viewBox="0 0 456 435" version="1.1" xmlns="http://www.w3.org/2000/svg" xmlns:xlink="http://www.w3.org/1999/xlink">
    <!-- Generator: Sketch 41.2 (35397) - http://www.bohemiancoding.com/sketch -->
    <title>Group 2</title>
    <desc>Created with Sketch.</desc>
    <defs></defs>
    <g id="Homepage-Design" stroke="none" stroke-width="1" fill="none" fill-rule="evenodd">
        <g id="Design" transform="translate(-838.000000, -196.000000)" fill="#0055A4">
            <g id="Group-2" transform="translate(838.000000, 196.000000)">
                <g id="pencil-o" transform="translate(256.000000, 9.000000)">
                    <path d="M99.5516,118.155054 L112.556,105.175979 L95.516,88.1691626 L82.5116,101.148238 L82.5116,107.414012 L93.274,107.414012 L93.274,118.155453 L99.5516,118.155054 Z M148.879,37.5948442 C147.683133,36.4013064 146.4498,36.4386336 145.179,37.7068257 L105.9416,76.8680136 C104.671067,78.1360727 104.633667,79.3670042 105.8294,80.5608082 C107.025133,81.7546121 108.258467,81.717285 109.5294,80.4488267 L148.7668,41.2872395 C150.037333,40.0190474 150.074733,38.7882489 148.879,37.5948442 Z M157.8476,104.056962 L157.8476,125.315482 C157.8476,134.191496 154.689933,141.781353 148.3746,148.085054 C142.059267,154.388754 134.4544,157.540471 125.56,157.540204 L32.287,157.540204 C23.3936667,157.540204 15.789,154.388687 9.473,148.085652 C3.157,141.782618 -0.000666666667,134.192561 1.58724316e-13,125.315482 L1.58724316e-13,32.2241237 C1.58724316e-13,23.3481094 3.15766667,15.7583187 9.473,9.4547517 C15.7883333,3.15118468 23.393,-0.000399221032 32.287,0 L125.56,0 C130.268533,0 134.640733,0.932380721 138.6766,2.79714216 C139.746248,3.25366308 140.507594,4.22454055 140.6946,5.37052093 C140.945286,6.55361321 140.56337,7.78182795 139.6856,8.61538948 L134.1924,14.0978919 C133.146,15.1422541 131.9502,15.4406053 130.605,14.9929455 C128.959033,14.5550355 127.263626,14.3294349 125.5602,14.3216553 L32.287,14.3216553 C27.3536667,14.3216553 23.1309333,16.0745683 19.6188,19.5803944 C16.1066667,23.0862204 14.3503333,27.3007968 14.3498,32.2241237 L14.3498,125.315482 C14.3498,130.239208 16.1061333,134.453718 19.6188,137.959012 C23.1314667,141.464305 27.3542,143.217218 32.287,143.217751 L125.56,143.217751 C130.493333,143.217751 134.716067,141.464838 138.2282,137.959012 C141.740333,134.453186 143.496867,130.238676 143.4978,125.315482 L143.4978,111.217989 C143.479206,110.293617 143.844386,109.402708 144.5068,108.756392 L151.6816,101.595565 C152.802667,100.476681 154.1106,100.215591 155.6054,100.812293 C157.1002,101.408995 157.8476,102.490552 157.8476,104.056962 Z M147.0852,21.4826826 L179.3722,53.7068062 L104.0358,128.896495 L71.7488,128.896495 L71.7488,96.6713729 L147.0852,21.4826826 Z M196.86,36.2520643 L186.546,46.5459786 L154.26,14.3218549 L164.574,4.02814021 C168.794519,-0.149032538 175.600081,-0.149032538 179.8206,4.02814021 L196.8606,21.0349562 C201.045923,25.2472565 201.045923,32.0395643 196.8606,36.2518647 L196.86,36.2520643 Z" id="Shape"></path>
                </g>
                <path d="M180.446927,218 C185.661106,218 190.223444,219.731826 194.134078,223.195531 C198.044712,226.659235 200,230.998112 200,236.212291 C200,240.905051 198.324039,246.528831 194.972067,253.083799 C170.241962,299.93692 152.923699,327.944088 143.01676,337.106145 C135.791398,343.884578 127.672298,347.273743 118.659218,347.273743 C109.273696,347.273743 101.210462,343.828712 94.4692737,336.938547 C87.7280855,330.048383 84.3575419,321.873418 84.3575419,312.413408 C84.3575419,302.878909 87.7839508,294.983272 94.6368715,288.726257 L165.921788,224.03352 C170.316596,220.011153 175.15826,218 180.446927,218 Z M78.8826816,333.530726 C81.787724,339.191835 85.7541648,344.033499 90.7821229,348.055866 C95.810081,352.078232 101.415239,354.908744 107.597765,356.547486 L107.709497,364.480447 C108.00745,380.346448 103.184407,393.269969 93.2402235,403.251397 C83.2960397,413.232825 70.3166536,418.223464 54.301676,418.223464 C45.139619,418.223464 37.0205196,416.491637 29.9441341,413.027933 C22.8677486,409.564228 17.1881034,404.815673 12.9050279,398.782123 C8.62195251,392.748573 5.40038324,385.932999 3.24022346,378.335196 C1.08006369,370.737392 0,362.543806 0,353.75419 C0.521417877,354.126631 2.04840447,355.243939 4.58100559,357.106145 C7.1136067,358.968352 9.42270838,360.625691 11.5083799,362.078212 C13.5940514,363.530734 15.7914223,364.890124 18.1005587,366.156425 C20.409695,367.422725 22.1228994,368.055866 23.2402235,368.055866 C26.2942425,368.055866 28.3426391,366.677854 29.3854749,363.921788 C31.2476816,359.005562 33.3891872,354.81566 35.8100559,351.351955 C38.2309246,347.888251 40.8193531,345.057739 43.575419,342.860335 C46.3314849,340.662931 49.6089196,338.893861 53.4078212,337.553073 C57.2067229,336.212284 61.0428112,335.262573 64.9162011,334.703911 C68.7895911,334.145249 73.445038,333.754191 78.8826816,333.530726 Z" id=""></path>
                <path d="M447.145833,250.479167 C449.576401,252.909734 451.659714,256.208312 453.395833,260.375 C455.131953,264.541687 456,268.361094 456,271.833333 L456,421.833333 C456,425.305573 454.784734,428.256932 452.354167,430.6875 C449.923599,433.118068 446.97224,434.333333 443.5,434.333333 L268.5,434.333333 C265.02776,434.333333 262.076401,433.118068 259.645833,430.6875 C257.215266,428.256932 256,425.305573 256,421.833333 L256,213.5 C256,210.02776 257.215266,207.076401 259.645833,204.645833 C262.076401,202.215266 265.02776,201 268.5,201 L385.166667,201 C388.638906,201 392.458313,201.868047 396.625,203.604167 C400.791688,205.340286 404.090266,207.423599 406.520833,209.854167 L447.145833,250.479167 Z M389.333333,218.708333 L389.333333,267.666667 L438.291667,267.666667 C437.423607,265.149293 436.468755,263.369797 435.427083,262.328125 L394.671875,221.572917 C393.630203,220.531245 391.850707,219.576393 389.333333,218.708333 Z M439.333333,417.666667 L439.333333,284.333333 L385.166667,284.333333 C381.694427,284.333333 378.743068,283.118068 376.3125,280.6875 C373.881932,278.256932 372.666667,275.305573 372.666667,271.833333 L372.666667,217.666667 L272.666667,217.666667 L272.666667,417.666667 L439.333333,417.666667 Z M422.666667,359.333333 L422.666667,401 L289.333333,401 L289.333333,376 L314.333333,351 L331,367.666667 L381,317.666667 L422.666667,359.333333 Z M314.333333,334.333333 C307.388854,334.333333 301.486135,331.902802 296.625,327.041667 C291.763865,322.180531 289.333333,316.277812 289.333333,309.333333 C289.333333,302.388854 291.763865,296.486135 296.625,291.625 C301.486135,286.763865 307.388854,284.333333 314.333333,284.333333 C321.277812,284.333333 327.180531,286.763865 332.041667,291.625 C336.902802,296.486135 339.333333,302.388854 339.333333,309.333333 C339.333333,316.277812 336.902802,322.180531 332.041667,327.041667 C327.180531,331.902802 321.277812,334.333333 314.333333,334.333333 Z" id=""></path>
                <path d="M200,37.5 L187.5,37.5 L187.5,137.5 L200,137.5 L200,175 L162.5,175 L162.5,162.5 L37.5,162.5 L37.5,175 L0,175 L0,137.5 L12.5,137.5 L12.5,37.5 L0,37.5 L0,0 L37.5,0 L37.5,12.5 L162.5,12.5 L162.5,0 L200,0 L200,37.5 Z M175,12.5 L175,25 L187.5,25 L187.5,12.5 L175,12.5 Z M12.5,12.5 L12.5,25 L25,25 L25,12.5 L12.5,12.5 Z M25,162.5 L25,150 L12.5,150 L12.5,162.5 L25,162.5 Z M162.5,150 L162.5,137.5 L175,137.5 L175,37.5 L162.5,37.5 L162.5,25 L37.5,25 L37.5,37.5 L25,37.5 L25,137.5 L37.5,137.5 L37.5,150 L162.5,150 Z M187.5,162.5 L187.5,150 L175,150 L175,162.5 L187.5,162.5 Z M125,62.5 L162.5,62.5 L162.5,137.5 L75,137.5 L75,112.5 L37.5,112.5 L37.5,37.5 L125,37.5 L125,62.5 Z M50,100 L112.5,100 L112.5,50 L50,50 L50,100 Z M150,125 L150,75 L125,75 L125,112.5 L87.5,112.5 L87.5,125 L150,125 Z" id=""></path>
            </g>
        </g>
    </g>
</svg>