<svg xmlns="http://www.w3.org/2000/svg" viewBox="45 15129 1000 789.237"><defs><style>.a{fill:#fff;}</style></defs><path class="a" d="M497.758,719.928l65.022-65.022-85.2-85.2-65.022,65.022v31.39h53.812v53.812ZM744.395,316.341q-8.969-8.969-18.5.561L529.708,513.09q-9.529,9.529-.561,18.5t18.5-.561L743.834,334.839Q753.363,325.309,744.395,316.341ZM789.238,649.3V755.8q0,66.7-47.365,114.07T627.8,917.238H161.435q-66.7,0-114.07-47.365T0,755.8V289.435q0-66.7,47.365-114.069T161.435,128H627.8q35.314,0,65.583,14.013a16.992,16.992,0,0,1,10.09,12.892,17.454,17.454,0,0,1-5.045,16.256l-27.466,27.466q-7.848,7.848-17.937,4.484a99.7,99.7,0,0,0-25.224-3.363H161.435q-37,0-63.341,26.345T71.749,289.435V755.8q0,37,26.345,63.341t63.341,26.345H627.8q37,0,63.341-26.345T717.489,755.8V685.175a16.775,16.775,0,0,1,5.045-12.332l35.874-35.874q8.408-8.408,19.619-3.924T789.238,649.3ZM735.426,235.623,896.861,397.058,520.179,773.74H358.744V612.3ZM984.3,309.614l-51.57,51.57L771.3,199.749l51.57-51.569a54.132,54.132,0,0,1,76.233,0l85.2,85.2a54.132,54.132,0,0,1,0,76.233Z" transform="translate(45 15001)"/></svg>